<!DOCTYPE svg PUBLIC "-//W3C//DTD SVG 1.1//EN" "http://www.w3.org/Graphics/SVG/1.1/DTD/svg11.dtd">
<!-- Uploaded to: SVG Repo, www.svgrepo.com, Transformed by: SVG Repo Mixer Tools -->
<svg fill="#14181B" height="800px" width="800px" version="1.1" id="Capa_1" xmlns="http://www.w3.org/2000/svg" xmlns:xlink="http://www.w3.org/1999/xlink" viewBox="0 0 313.725 313.725" xml:space="preserve" stroke="#14181B">
<g id="SVGRepo_bgCarrier" stroke-width="0"/>
<g id="SVGRepo_tracerCarrier" stroke-linecap="round" stroke-linejoin="round"/>
<g id="SVGRepo_iconCarrier"> <g> <path d="M197.031,169.689c13.555,12.421,34.613,11.505,47.035-2.045c12.417-13.553,11.501-34.613-2.051-47.032 c-13.556-12.426-34.613-11.503-47.032,2.05C182.563,136.215,183.478,157.273,197.031,169.689z"/> <path d="M156.862,0C70.368,0,0,70.368,0,156.862s70.368,156.862,156.862,156.862s156.862-70.368,156.862-156.862 S243.356,0,156.862,0z M156.862,23.725C230.274,23.725,290,83.45,290,156.862c0,8.924-0.898,17.64-2.581,26.076 c-12.736,0.002-19.672,3.412-25.547,6.393c-5.127,2.603-9.177,4.657-18.148,4.657c-8.975,0-13.026-2.056-18.154-4.658 c-5.877-2.982-12.538-6.362-25.28-6.362c-0.184,0-0.355,0.008-0.537,0.009l-9.101-9.101c-0.344-5.925-2.396-11.812-6.292-16.863 c-0.724-0.939-1.497-1.818-2.304-2.649c-0.145-0.167-0.277-0.342-0.431-0.504l-30.459-32.182c-1.716-1.814-3.881-3.14-6.275-3.846 l-14.585-4.3l-58.78-58.778C94.65,35.396,124.417,23.725,156.862,23.725z M23.725,156.862c0-32.443,11.671-62.209,31.026-85.332 l37.495,37.493c-2.016,1.72-3.578,4.018-4.383,6.748c-2.21,7.495,2.075,15.362,9.57,17.572l27.132,7.998l13.07,13.069 l-28.16,21.713c2.2-0.281,4.623-0.441,7.315-0.441c12.372,0,19.086,3.406,24.482,6.144c4.526,2.301,7.801,3.961,15.338,3.961 c4.804,0,7.874-0.676,10.641-1.761l6.128,6.129c-4.426,2.198-8.515,3.834-16.516,3.834c-8.976,0-13.026-2.056-18.154-4.658 c-5.876-2.982-12.536-6.362-25.274-6.362c-12.742,0-19.402,3.38-25.279,6.362c-5.128,2.602-9.18,4.658-18.155,4.658 c-8.972,0-13.022-2.055-18.149-4.657c-5.875-2.981-12.837-6.522-25.571-6.524C24.614,174.412,23.725,165.74,23.725,156.862z M156.862,290c-58.738,0-108.709-38.238-126.341-91.128c6.34,0.521,9.897,2.315,14.204,4.501 c5.876,2.982,12.536,6.362,25.275,6.362c12.742,0,19.403-3.381,25.28-6.362c5.128-2.603,9.179-4.658,18.154-4.658 c8.972,0,13.021,2.055,18.148,4.657c5.877,2.982,12.538,6.363,25.28,6.363c12.741,0,19.402-3.381,25.278-6.363 c1.02-0.518,1.998-1.013,2.98-1.475l57.076,57.073C219.073,278.328,189.307,290,156.862,290z M258.973,242.195l-37.152-37.151 c5.174,2.445,11.519,4.691,21.904,4.691c12.738,0,19.398-3.38,25.274-6.362c4.306-2.186,7.864-3.979,14.205-4.501 C277.869,214.873,269.574,229.53,258.973,242.195z"/> </g> </g>
</svg>