<?xml version="1.0" encoding="UTF-8" standalone="no"?>
<!-- Uploaded to: SVG Repo, www.svgrepo.com, Transformed by: SVG Repo Mixer Tools -->

<svg
   fill="#14181b"
   width="800"
   height="800"
   viewBox="0 0 32 32"
   id="Layer_1"
   data-name="Layer 1"
   stroke="#14181b"
   stroke-width="0.64"
   version="1.1"
   xmlns="http://www.w3.org/2000/svg"
   xmlns:svg="http://www.w3.org/2000/svg">
  <g
     id="SVGRepo_iconCarrier">
    <rect
       x="24"
       y="8"
       width="4"
       height="2"
       id="rect2" />
    <rect
       x="24"
       y="14"
       width="6"
       height="2"
       id="rect3" />
    <path
       d="M 30,28 H 24 A 10.0349,10.0349 0 0 1 17.0732,10.7378 11.9629,11.9629 0 0 0 12.9937,10 6.9027,6.9027 0 0 0 6.9629,13.42 C 4.9966,16.4348 4,21.34 4,28 H 2 C 2,20.9458 3.106,15.6726 5.2871,12.3274 A 8.906,8.906 0 0 1 12.9937,8 h 0.0068 a 14.762,14.762 0 0 1 6.4619,1.592 1,1 0 0 1 0.0869,1.7222 A 8.0249,8.0249 0 0 0 24,26 h 6 z"
       id="path4" />
  </g>
</svg>
